<mxfile host="app.diagrams.net" modified="2021-11-22T03:34:43.270Z" agent="5.0 (Windows NT 10.0; Win64; x64) AppleWebKit/537.36 (KHTML, like Gecko) Chrome/95.0.4638.54 Safari/537.36" etag="ChqYD8AsnlPJYRAm5wAc" version="15.7.3" type="github" pages="2">
  <diagram id="KYrQCcFMw-cXKzeL9-iy" name="Page-1">
    <mxGraphModel dx="1422" dy="706" grid="0" gridSize="10" guides="1" tooltips="1" connect="1" arrows="1" fold="1" page="1" pageScale="1" pageWidth="1169" pageHeight="1654" math="0" shadow="0">
      <root>
        <mxCell id="0" />
        <mxCell id="1" parent="0" />
        <mxCell id="Ni6TJzV1o36ky-tcc2hh-1" value="" style="image;html=1;image=img/lib/clip_art/computers/iMac_128x128.png" parent="1" vertex="1">
          <mxGeometry x="70" y="505" width="80" height="80" as="geometry" />
        </mxCell>
        <mxCell id="Ni6TJzV1o36ky-tcc2hh-2" value="" style="image;html=1;image=img/lib/clip_art/networking/Router_128x128.png" parent="1" vertex="1">
          <mxGeometry x="230" y="505" width="80" height="80" as="geometry" />
        </mxCell>
        <mxCell id="Ni6TJzV1o36ky-tcc2hh-5" value="国内站点" style="swimlane;childLayout=stackLayout;horizontal=1;startSize=30;horizontalStack=0;rounded=1;fontSize=14;fontStyle=0;strokeWidth=2;resizeParent=0;resizeLast=1;shadow=0;dashed=0;align=center;fillColor=#dae8fc;strokeColor=#6c8ebf;" parent="1" vertex="1">
          <mxGeometry x="220" y="690" width="96" height="60" as="geometry" />
        </mxCell>
        <mxCell id="Ni6TJzV1o36ky-tcc2hh-7" value="海外站点" style="swimlane;childLayout=stackLayout;horizontal=1;startSize=30;horizontalStack=0;rounded=1;fontSize=14;fontStyle=0;strokeWidth=2;resizeParent=0;resizeLast=1;shadow=0;dashed=0;align=center;fillColor=#d5e8d4;strokeColor=#82b366;verticalAlign=middle;" parent="1" vertex="1">
          <mxGeometry x="820" y="512.5" width="120" height="60" as="geometry" />
        </mxCell>
        <mxCell id="Ni6TJzV1o36ky-tcc2hh-8" value="" style="shape=doubleArrow;whiteSpace=wrap;html=1;" parent="1" vertex="1">
          <mxGeometry x="320" y="535" width="84" height="18" as="geometry" />
        </mxCell>
        <mxCell id="Ni6TJzV1o36ky-tcc2hh-11" value="" style="shape=doubleArrow;whiteSpace=wrap;html=1;" parent="1" vertex="1">
          <mxGeometry x="150" y="535" width="70" height="20" as="geometry" />
        </mxCell>
        <mxCell id="Ni6TJzV1o36ky-tcc2hh-12" value="" style="shape=doubleArrow;whiteSpace=wrap;html=1;rotation=90;" parent="1" vertex="1">
          <mxGeometry x="216" y="620" width="100" height="20" as="geometry" />
        </mxCell>
        <mxCell id="Ni6TJzV1o36ky-tcc2hh-13" value="透明代理" style="text;html=1;strokeColor=none;fillColor=none;align=center;verticalAlign=middle;whiteSpace=wrap;rounded=0;fontColor=#4D9900;" parent="1" vertex="1">
          <mxGeometry x="343" y="512.5" width="36" height="30.5" as="geometry" />
        </mxCell>
        <mxCell id="Ni6TJzV1o36ky-tcc2hh-14" value="" style="aspect=fixed;perimeter=ellipsePerimeter;html=1;align=center;shadow=0;dashed=0;fontColor=#4277BB;labelBackgroundColor=#ffffff;fontSize=12;spacingTop=3;image;image=img/lib/ibm/infrastructure/mobile_backend.svg;verticalAlign=middle;" parent="1" vertex="1">
          <mxGeometry x="700" y="513.75" width="60" height="60" as="geometry" />
        </mxCell>
        <mxCell id="Ni6TJzV1o36ky-tcc2hh-15" value="" style="aspect=fixed;perimeter=ellipsePerimeter;html=1;align=center;shadow=0;dashed=0;fontColor=#ffa500;labelBackgroundColor=#ffa500;fontSize=12;spacingTop=3;image;image=img/lib/ibm/infrastructure/mobile_backend.svg;verticalAlign=middle;" parent="1" vertex="1">
          <mxGeometry x="413" y="515" width="60" height="60" as="geometry" />
        </mxCell>
        <mxCell id="Ni6TJzV1o36ky-tcc2hh-16" value="" style="verticalLabelPosition=bottom;verticalAlign=middle;html=1;shape=mxgraph.basic.rect;fillColor2=none;strokeWidth=1;size=20;indent=5;dashed=1;" parent="1" vertex="1">
          <mxGeometry x="528.5" y="481.25" width="138" height="123.75" as="geometry" />
        </mxCell>
        <mxCell id="Ni6TJzV1o36ky-tcc2hh-18" value="" style="image;html=1;image=img/lib/clip_art/networking/Firewall_128x128.png;dashed=1;verticalAlign=middle;" parent="1" vertex="1">
          <mxGeometry x="560" y="499" width="75" height="63.75" as="geometry" />
        </mxCell>
        <mxCell id="Ni6TJzV1o36ky-tcc2hh-19" value="&lt;font style=&quot;font-size: 15px&quot; color=&quot;#ff8000&quot;&gt;&lt;span style=&quot;font-family: helvetica; font-style: normal; font-weight: 700; letter-spacing: normal; text-indent: 0px; text-transform: none; word-spacing: 0px; background-color: rgb(248, 249, 250); display: inline; float: none;&quot;&gt;GFW&lt;/span&gt;&lt;br style=&quot;font-family: helvetica; font-style: normal; font-weight: 700; letter-spacing: normal; text-indent: 0px; text-transform: none; word-spacing: 0px; background-color: rgb(248, 249, 250);&quot;&gt;&lt;span style=&quot;font-family: helvetica; font-style: normal; font-weight: 700; letter-spacing: normal; text-indent: 0px; text-transform: none; word-spacing: 0px; background-color: rgb(248, 249, 250); display: inline; float: none;&quot;&gt;代理协议&lt;/span&gt;&lt;/font&gt;" style="text;whiteSpace=wrap;html=1;align=center;verticalAlign=middle;" parent="1" vertex="1">
          <mxGeometry x="537.5" y="560" width="120" height="50" as="geometry" />
        </mxCell>
        <mxCell id="Ni6TJzV1o36ky-tcc2hh-20" value="" style="shape=doubleArrow;whiteSpace=wrap;html=1;dashed=1;fontSize=15;fontColor=#FF8000;align=center;verticalAlign=middle;" parent="1" vertex="1">
          <mxGeometry x="474" y="535" width="76" height="25" as="geometry" />
        </mxCell>
        <mxCell id="Ni6TJzV1o36ky-tcc2hh-21" value="" style="shape=doubleArrow;whiteSpace=wrap;html=1;dashed=1;fontSize=15;fontColor=#FF8000;align=center;verticalAlign=middle;" parent="1" vertex="1">
          <mxGeometry x="640" y="530" width="60" height="25" as="geometry" />
        </mxCell>
        <mxCell id="Ni6TJzV1o36ky-tcc2hh-23" value="" style="shape=doubleArrow;whiteSpace=wrap;html=1;dashed=1;fontSize=15;fontColor=#FF8000;align=center;verticalAlign=middle;" parent="1" vertex="1">
          <mxGeometry x="760" y="535" width="50" height="16.25" as="geometry" />
        </mxCell>
        <mxCell id="Ni6TJzV1o36ky-tcc2hh-25" value="国内代理服务" style="whiteSpace=wrap;html=1;dashed=1;fontSize=15;fontColor=#FF8000;align=center;verticalAlign=middle;strokeColor=none;fillColor=none;" parent="1" vertex="1">
          <mxGeometry x="395" y="568" width="100" height="60" as="geometry" />
        </mxCell>
        <mxCell id="Ni6TJzV1o36ky-tcc2hh-26" value="海外代理服务" style="whiteSpace=wrap;html=1;dashed=1;fontSize=15;fontColor=#FF8000;align=center;verticalAlign=middle;strokeColor=none;fillColor=none;" parent="1" vertex="1">
          <mxGeometry x="690" y="560" width="100" height="60" as="geometry" />
        </mxCell>
        <mxCell id="Ni6TJzV1o36ky-tcc2hh-27" value="国内流量" style="text;html=1;align=center;verticalAlign=middle;resizable=0;points=[];autosize=1;strokeColor=none;fillColor=none;fontSize=15;fontColor=#4D9900;" parent="1" vertex="1">
          <mxGeometry x="181" y="618" width="70" height="22" as="geometry" />
        </mxCell>
        <mxCell id="Ni6TJzV1o36ky-tcc2hh-28" value="海外流量" style="text;html=1;align=center;verticalAlign=middle;resizable=0;points=[];autosize=1;strokeColor=none;fillColor=none;fontSize=15;fontColor=#CC6600;" parent="1" vertex="1">
          <mxGeometry x="480" y="512.5" width="70" height="22" as="geometry" />
        </mxCell>
      </root>
    </mxGraphModel>
  </diagram>
  <diagram id="3RNW_l28c_eRQ5QnMchW" name="Page-2">
    <mxGraphModel dx="1422" dy="706" grid="0" gridSize="10" guides="1" tooltips="1" connect="1" arrows="1" fold="1" page="1" pageScale="1" pageWidth="1169" pageHeight="1654" math="0" shadow="0">
      <root>
        <mxCell id="l4EnKytnvlrOn2y7dCJU-0" />
        <mxCell id="l4EnKytnvlrOn2y7dCJU-1" parent="l4EnKytnvlrOn2y7dCJU-0" />
      </root>
    </mxGraphModel>
  </diagram>
</mxfile>
